<?xml version="1.0" standalone="no"?>
<!DOCTYPE svg PUBLIC "-//W3C//DTD SVG 20010904//EN"
 "http://www.w3.org/TR/2001/REC-SVG-20010904/DTD/svg10.dtd">
<svg version="1.0" xmlns="http://www.w3.org/2000/svg"
 width="5000.000000pt" height="1798.000000pt" viewBox="0 0 5000.000000 1798.000000"
 preserveAspectRatio="xMidYMid meet">

<g transform="translate(0.000000,1798.000000) scale(0.100000,-0.100000)"
fill="#000000" stroke="none">
<path d="M49081 17965 c-298 -65 -551 -370 -630 -763 -67 -327 -15 -662 145
-937 57 -97 202 -246 290 -297 378 -219 806 -38 1006 425 96 222 129 486 92
734 -84 567 -475 930 -903 838z m260 -171 c174 -52 301 -172 400 -379 169
-353 137 -819 -77 -1121 -208 -294 -558 -337 -812 -99 -145 135 -238 333 -271
578 -62 455 157 912 487 1018 73 23 200 24 273 3z"/>
<path d="M49054 17510 c-39 -4 -85 -11 -102 -15 l-32 -7 0 -584 0 -584 75 0
75 0 0 250 0 250 69 0 c149 0 194 -50 221 -245 14 -103 29 -182 41 -222 l11
-33 75 0 c61 0 74 3 70 14 -15 37 -28 102 -47 235 -30 200 -62 276 -135 317
-18 10 -16 13 22 37 101 64 147 191 123 342 -19 120 -73 187 -183 225 -65 23
-185 32 -283 20z m211 -159 c85 -38 130 -140 106 -237 -27 -105 -87 -144 -224
-144 l-87 0 0 193 c0 107 3 197 7 200 15 15 158 6 198 -12z"/>
<path d="M0 8960 l0 -8960 24035 0 24035 0 0 8934 0 8934 -3272 6 c-2974 6
-41581 46 -43840 46 l-958 0 0 -8960z m46680 -45 l0 -7085 -22645 0 -22645 0
0 7085 0 7085 22645 0 22645 0 0 -7085z"/>
<path d="M4203 14148 c6 -37 2365 -10454 2373 -10481 5 -16 47 -17 737 -15
l732 3 1212 5260 c667 2893 1212 5261 1213 5263 0 1 -373 2 -829 2 l-828 0
-10 -52 c-6 -29 -343 -1816 -749 -3970 -406 -2155 -741 -3910 -745 -3900 -3 9
-349 1796 -770 3969 l-764 3953 -789 0 -789 0 6 -32z"/>
<path d="M15085 14168 c-14 -39 -2265 -10461 -2261 -10465 29 -29 1613 -29
1642 0 3 3 30 133 60 289 65 333 420 2159 435 2236 l10 52 1193 0 1193 0 10
-47 c5 -27 126 -618 269 -1315 l259 -1268 808 0 809 0 -8 33 c-4 17 -514 2386
-1134 5262 l-1127 5230 -1077 3 c-856 2 -1078 0 -1081 -10z m1500 -3984 c251
-1209 458 -2207 461 -2216 5 -17 -41 -18 -880 -18 -487 0 -886 3 -886 6 0 4
189 1000 420 2214 231 1215 420 2212 420 2216 0 4 2 5 5 3 2 -3 209 -995 460
-2205z"/>
<path d="M23436 14058 c-7 -146 -21 -723 -38 -1568 -15 -738 -17 -4696 -4
-7162 l8 -1678 2459 0 2459 0 0 885 0 885 -1670 0 -1670 0 0 4380 0 4380 -769
0 -769 0 -6 -122z"/>
<path d="M30254 14154 c4 -15 540 -2345 1192 -5178 652 -2833 1194 -5190 1205
-5238 l21 -88 714 0 c393 0 714 2 714 5 0 3 545 2370 1210 5260 666 2890 1210
5256 1210 5260 0 3 -363 4 -807 3 l-808 -3 -692 -3615 c-380 -1988 -717 -3751
-749 -3917 -32 -167 -59 -302 -60 -300 -2 2 -1454 7407 -1526 7780 l-11 57
-809 0 -810 0 6 -26z"/>
<path d="M39866 13323 c-3 -472 -11 -1801 -16 -2953 -5 -1152 -12 -2384 -15
-2737 l-6 -643 1675 0 1676 0 0 685 0 685 -1080 0 -1080 0 2 783 3 782 983 3
982 2 0 680 0 680 -982 2 -983 3 -3 758 -2 757 1080 0 1080 0 0 685 0 685
-1654 0 -1653 0 -7 -857z"/>
</g>
</svg>
